# xmcd
#
# Track frame offsets:
#	183
#	15140
#	28170
#	45298
#	62413
#	75208
#	87598
#	102465
#	113693
#	126553
#	139175
#	153985
#	165745
#	178725
#
# Disc length: 2561 seconds
#
# Revision: 1
# Processed by: cddbd v1.5.2PL0 Copyright (c) Steve Scherf et al.
# Submitted via: audiograbber 1.83.01
#
DISCID=a809ff0e
DTITLE=Various Artist - Stars and Trucks Vol 3
DYEAR=1900
DGENRE=Country
TTITLE0=Nancy Wood - Asphalt Cowboys
TTITLE1=Sammy´s Saloon - Cowboyhut und Schlangenschuh
TTITLE2=Saby Kent - Country Girl
TTITLE3=Gunter Gabriel - Hey Lisa (Hey Yvonne) 
TTITLE4=Andre Kentucky - Nur mit dir (Oh, Lonesome Me)
TTITLE5=Tennessee - Halb 8
TTITLE6=Emsland Hillbillies - Cowboy Roadie
TTITLE7=Peter Held - Wenn ein Wunsch mir bliebe (One More Plane)
TTITLE8=Johnny Hill - Es sind nur Erinnerungen (I recall a Gipsy woman)
TTITLE9=Heide Gehlert - Dein Lachen steckt an
TTITLE10=Tom Astor - Das schöne Mädchen von der Autobahn
TTITLE11=Freddy Quinn - Die Freiheit der Berge
TTITLE12=Dä Drüjje Piter - Sie ist ein Truckerfan
TTITLE13=Country Pickers - Highway Dreams (Instrumental)
EXTD=
EXTT0=
EXTT1=
EXTT2=
EXTT3=
EXTT4=
EXTT5=
EXTT6=
EXTT7=
EXTT8=
EXTT9=
EXTT10=
EXTT11=
EXTT12=
EXTT13=
PLAYORDER=
